# xmcd CD database file
#
# Track frame offsets:
#	150
#	19616
#	41447
#	52902
#	69439
#	87167
#	104999
#	123159
#	142931
#	160972
#	187345
#	205223
#	227475
#	245332
#	266682
#	278747
#
# Disc length: 3965 seconds
#
# Revision: 1
# Processed by: cddbd v1.5.2PL0 Copyright (c) Steve Scherf et al.
# Submitted via: CDex 1.51
#
DISCID=dd0f7b10
DTITLE=Various Artist - EZ-PP-1-CD-5
DYEAR=1900
DGENRE=Blues
TTITLE0=Abba - Knowing Me Knowing You
TTITLE1=George Harrison - My Sweet Lord
TTITLE2=Undertones The - Teenage Kicks
TTITLE3=Bryan Adams - Summer Of 69 
TTITLE4=Gary Numan - Cars
TTITLE5=E.L.O. - Mr Blue Sky
TTITLE6=Beach Boys The - Good Vibrations
TTITLE7=S Club 7 - Reach
TTITLE8=Take That - Back For Good
TTITLE9=Dire Straits - Sultans Of Swing
TTITLE10=Human League The - Don't You Want Me
TTITLE11=Madonna - Into The Groove
TTITLE12=Cher - Believe
TTITLE13=Wet Wet Wet - Love Is All Around
TTITLE14=Soft Cell - Tainted Love
TTITLE15=Bon Jovi - Living On A Prayer
EXTD=
EXTT0=
EXTT1=
EXTT2=
EXTT3=
EXTT4=
EXTT5=
EXTT6=
EXTT7=
EXTT8=
EXTT9=
EXTT10=
EXTT11=
EXTT12=
EXTT13=
EXTT14=
EXTT15=
PLAYORDER=
